<svg role="img" viewBox="0 0 24 24" xmlns="http://www.w3.org/2000/svg"><path d="M12 0C5.373 0 0 5.373 0 12s5.373 12 12 12 12-5.373 12-12S18.627 0 12 0zm0 22C6.486 22 2 17.514 2 12S6.486 2 12 2s10 4.486 10 10-4.486 10-10 10z"/><path d="M15.38 7.12c.84.63 1.61 1.87 1.61 3.38 0 2.76-2.24 5-5 5-1.51 0-2.75-.77-3.38-1.61l1.44-1.44c.39.53 1.05.92 1.94.92 1.59 0 2.87-1.28 2.87-2.87 0-.89-.39-1.55-.92-1.94L15.38 7.12zM12 9.5c-1.38 0-2.5 1.12-2.5 2.5s1.12 2.5 2.5 2.5 2.5-1.12 2.5-2.5-1.12-2.5-2.5-2.5z"/></svg>
