<svg xmlns="http://www.w3.org/2000/svg" viewBox="0 0 24 24" fill="#3DDC84">
  <path d="M17.523 15.3414c-.5511 0-.9993-.4486-.9993-.9997s.4482-.9993.9993-.9993c.5511 0 .9993.4482.9993.9993s-.4482.9997-.9993.9997m-11.046 0c-.5511 0-.9993-.4486-.9993-.9997s.4482-.9993.9993-.9993c.5511 0 .9993.4482.9993.9993s-.4482.9997-.9993.9997m11.4045-6.02l1.9973-3.4592a.416.416 0 00-.1521-.5676.416.416 0 00-.5676.1521l-2.0225 3.503C15.5902 8.4797 13.8532 8.1606 12 8.1606c-1.8532 0-3.5902.3191-5.1364.8892L4.8411 5.5467a.416.416 0 00-.5676-.1521.4158.4158 0 00-.1521.5676l1.9973 3.4592C2.6889 11.1867.3432 15.2935.3432 19.9999h23.3136c0-4.7064-2.3457-8.8132-5.7293-10.6785"/>
</svg>
