<?xml version="1.0" encoding="UTF-8"?>
<svg version="1.1" xmlns="http://www.w3.org/2000/svg" width="512" height="512">
<path d="M0 0 C1.01790619 0.00215515 2.03581238 0.0043103 3.08456421 0.00653076 C17.69363523 0.05620146 32.02575853 0.30709809 46.375 3.3125 C47.34985352 3.51117676 48.32470703 3.70985352 49.32910156 3.91455078 C97.7109774 14.03517194 141.69928269 35.9516877 177.375 70.3125 C178.3640332 71.26068604 178.3640332 71.26068604 179.37304688 72.22802734 C188.86130305 81.37247479 197.6012044 90.66984009 205.375 101.3125 C206.23306152 102.46355017 207.09113451 103.61459177 207.94921875 104.765625 C213.98736829 112.95680614 219.34595521 121.47054105 224.375 130.3125 C224.73948242 130.94430176 225.10396484 131.57610352 225.47949219 132.22705078 C247.08534998 169.97532572 256.85198095 212.74189997 256.6875 255.9375 C256.68534485 256.95540619 256.6831897 257.97331238 256.68096924 259.02206421 C256.63129854 273.63113523 256.38040191 287.96325853 253.375 302.3125 C253.07698486 303.77478027 253.07698486 303.77478027 252.77294922 305.26660156 C242.65232806 353.6484774 220.7358123 397.63678269 186.375 433.3125 C185.74287598 433.97185547 185.11075195 434.63121094 184.45947266 435.31054688 C175.31502521 444.79880305 166.01765991 453.5387044 155.375 461.3125 C154.22394983 462.17056152 153.07290823 463.02863451 151.921875 463.88671875 C143.73224019 469.92427396 135.22961724 475.30707302 126.375 480.3125 C125.66778809 480.7146875 124.96057617 481.116875 124.23193359 481.53125 C101.09654164 494.5566741 75.92537591 503.30551461 49.9375 508.625 C49.21860596 508.77235596 48.49971191 508.91971191 47.7590332 509.0715332 C33.08339502 511.86090125 18.55831162 512.66142619 3.64770508 512.62817383 C0.70811513 512.6250221 -2.2304558 512.64854926 -5.16992188 512.67382812 C-18.54306192 512.71848737 -31.43916711 511.51301542 -44.625 509.3125 C-46.33055054 509.03031616 -46.33055054 509.03031616 -48.07055664 508.74243164 C-91.33802759 500.97044532 -132.38793216 480.98345309 -165.625 452.3125 C-166.37007813 451.67828125 -167.11515625 451.0440625 -167.8828125 450.390625 C-181.38779833 438.57948485 -194.05918743 425.82889772 -204.625 411.3125 C-205.48149066 410.16255169 -206.33826433 409.01281411 -207.1953125 407.86328125 C-213.23534209 399.67315742 -218.61867614 391.16870382 -223.625 382.3125 C-224.0271875 381.60528809 -224.429375 380.89807617 -224.84375 380.16943359 C-237.8691741 357.03404164 -246.61801461 331.86287591 -251.9375 305.875 C-252.08485596 305.15610596 -252.23221191 304.43721191 -252.3840332 303.6965332 C-255.35789088 288.05024391 -255.99800362 272.57681954 -255.9375 256.6875 C-255.93534485 255.66959381 -255.9331897 254.65168762 -255.93096924 253.60293579 C-255.88129854 238.99386477 -255.63040191 224.66174147 -252.625 210.3125 C-252.42632324 209.33764648 -252.22764648 208.36279297 -252.02294922 207.35839844 C-241.90232806 158.9765226 -219.9858123 114.98821731 -185.625 79.3125 C-184.99287598 78.65314453 -184.36075195 77.99378906 -183.70947266 77.31445312 C-174.56502521 67.82619695 -165.26765991 59.0862956 -154.625 51.3125 C-153.47394983 50.45443848 -152.32290823 49.59636549 -151.171875 48.73828125 C-142.98224019 42.70072604 -134.47961724 37.31792698 -125.625 32.3125 C-124.91778809 31.9103125 -124.21057617 31.508125 -123.48193359 31.09375 C-100.34654164 18.0683259 -75.17537591 9.31948539 -49.1875 4 C-48.46860596 3.85264404 -47.74971191 3.70528809 -47.0090332 3.5534668 C-31.36274391 0.57960912 -15.88931954 -0.06050362 0 0 Z " fill="#FF9800" transform="translate(255.625,-0.3125)"/>
<path d="M0 0 C18.74709328 10.12753908 39.11114152 15.63934063 60.40234375 15.54296875 C61.68592773 15.5380542 62.96951172 15.53313965 64.29199219 15.52807617 C73.63126346 15.41278383 82.16521738 14.66464157 91.21484375 12.23046875 C91.87774414 12.06417969 92.54064453 11.89789063 93.22363281 11.7265625 C106.71200306 8.32771979 119.47232802 3.05505361 131.58984375 -3.76953125 C137.61862335 -6.83589329 144.03185395 -6.91682488 150.5078125 -5.140625 C156.65563737 -2.48885528 161.46014735 2.65088809 164.38671875 8.62109375 C166.30739226 14.67302726 166.27152425 21.7713285 163.65234375 27.60546875 C159.68856809 34.06582074 153.3761336 38.10068347 146.77734375 41.54296875 C146.06723145 41.91615234 145.35711914 42.28933594 144.62548828 42.67382812 C138.12243439 45.97425539 131.40749571 48.65442631 124.58984375 51.23046875 C123.06145874 51.80921753 123.06145874 51.80921753 121.50219727 52.3996582 C116.38434422 54.27381946 111.65081363 55.74321095 106.21484375 56.23046875 C110.43820063 61.34435172 114.99101207 66.07969236 119.69921875 70.7421875 C120.28489624 71.32235626 120.87057373 71.90252502 121.47399902 72.50027466 C123.92458226 74.923174 126.37876256 77.34235602 128.83740234 79.75708008 C130.64993306 81.53936225 132.45615082 83.32785579 134.26171875 85.1171875 C134.81486755 85.65687668 135.36801636 86.19656586 135.93792725 86.75260925 C142.01274952 92.78778743 144.31964794 97.54146005 144.52734375 105.98046875 C144.44656205 112.62072416 143.12257367 116.9988398 138.671875 121.9453125 C133.52403388 126.76331483 128.26935355 128.83633845 121.33984375 129.73046875 C110.89190812 129.21233117 103.44217191 121.1395595 96.61328125 114.1171875 C95.64218907 113.13674582 94.66996917 112.15741995 93.69668579 111.17915344 C91.16364053 108.62720631 88.64598901 106.06060323 86.13146973 103.49041748 C83.5526758 100.86006401 80.9592974 98.24417337 78.3671875 95.62695312 C73.30219472 90.50867035 68.25341026 85.37478271 63.21484375 80.23046875 C59.75721593 81.7123049 57.57103118 83.65644558 54.95629883 86.34130859 C53.70898735 87.61305435 53.70898735 87.61305435 52.43647766 88.91049194 C51.54478378 89.82819366 50.6530899 90.74589539 49.734375 91.69140625 C48.79839447 92.64383502 47.86158754 93.59545229 46.92399597 94.54629517 C42.95292607 98.57519943 38.99154064 102.61341421 35.0456543 106.66699219 C32.62697225 109.15057929 30.19586372 111.62143345 27.75681114 114.08501053 C26.39112652 115.47166715 25.03934455 116.87197276 23.6879425 118.27255249 C17.91169477 124.09538259 12.60041244 128.2032074 4.4296875 129.76171875 C-2.57789707 129.66555979 -7.60355614 128.23635919 -12.765625 123.359375 C-17.77045461 117.900499 -20.06810385 113.50807959 -20.22265625 105.98046875 C-20.26261719 104.9234375 -20.30257812 103.86640625 -20.34375 102.77734375 C-19.00217338 94.25880129 -13.34213007 88.21896394 -7.33203125 82.421875 C-6.28079071 81.38268166 -6.28079071 81.38268166 -5.20831299 80.32249451 C-2.9932941 78.13621262 -0.76497414 75.96414533 1.46484375 73.79296875 C3.70618249 71.5941597 5.94465104 69.39249982 8.18084717 67.1884613 C9.56728743 65.82370608 10.95719877 64.46246634 12.35089111 63.1051178 C12.97534119 62.49365402 13.59979126 61.88219025 14.24316406 61.25219727 C14.79433899 60.71530777 15.34551392 60.17841827 15.91339111 59.6252594 C17.32690238 58.24236548 17.32690238 58.24236548 18.21484375 56.23046875 C17.09464844 56.13507813 15.97445312 56.0396875 14.8203125 55.94140625 C9.76557027 55.30027371 5.26055641 53.69183713 0.52734375 51.85546875 C-0.37387207 51.50677734 -1.27508789 51.15808594 -2.20361328 50.79882812 C-9.01355644 48.08664297 -15.62630075 45.05111453 -22.16015625 41.73046875 C-23.45119263 41.09165771 -23.45119263 41.09165771 -24.76831055 40.43994141 C-31.5570562 36.86931136 -36.75567904 32.28942317 -40.22265625 25.35546875 C-41.54175995 18.02711487 -41.64612099 10.80638749 -37.78515625 4.23046875 C-27.03752636 -9.59981467 -13.71858104 -7.41961322 0 0 Z " fill="#FFFEFD" transform="translate(193.78515625,261.76953125)"/>
<path d="M0 0 C1.45792969 0.52787109 1.45792969 0.52787109 2.9453125 1.06640625 C21.77858834 8.36369855 35.2996338 21.22025762 43.61328125 39.55859375 C50.58501077 56.86026615 49.38708001 74.739608 42.875 92 C34.87157321 110.05534972 21.86634117 121.41647786 4 129 C2.42798828 129.68449219 2.42798828 129.68449219 0.82421875 130.3828125 C-14.97120783 136.2420758 -32.92123792 133.85215229 -48.19921875 127.71484375 C-65.25229035 119.87610789 -77.39478451 105.8519693 -84.359375 88.640625 C-90.78745176 69.91535792 -89.07672239 51.77737616 -80.9375 33.875 C-77.06568321 26.46442594 -71.96693649 20.79847914 -66 15 C-65.36964844 14.38382813 -64.73929688 13.76765625 -64.08984375 13.1328125 C-47.53570057 -1.97333234 -21.1419715 -8.00053329 0 0 Z " fill="#FFFEFC" transform="translate(276,124)"/>
<path d="M0 0 C8.80925118 5.61551922 14.79304293 12.34335415 17.87109375 22.40234375 C19.9381402 32.91819171 17.47464372 42.54278479 11.95703125 51.61328125 C6.83167115 58.2426644 -1.53676893 63.03718538 -9.7265625 64.44921875 C-21.48056329 65.35718229 -30.57391154 63.03037681 -39.7265625 55.44921875 C-46.37598879 48.84412197 -49.82726415 39.63742539 -50.1640625 30.32421875 C-49.62357334 19.44469511 -45.30668382 11.52415733 -37.4140625 4.19921875 C-27.11754013 -3.94014883 -12.05730579 -5.86404804 0 0 Z " fill="#FF9801" transform="translate(271.7265625,158.55078125)"/>
</svg>
