<svg xmlns="http://www.w3.org/2000/svg" viewBox="0 0 24 24"><path fill="#4285F4" d="M23.766 12.2764c0-.8842-.0765-1.734-.2292-2.552H12.24v4.8252h6.4837c-.2792 1.5087-1.129 2.783-2.4095 3.639v3.002h3.8952c2.2825-2.0995 3.5966-5.194 3.5966-8.9142z"/><path fill="#34A853" d="M12.24 24.0018c3.2666 0 6.0008-1.0835 8.0044-2.9382l-3.8952-3.002c-1.0892.733-2.4856 1.1652-4.1092 1.1652-3.1508 0-5.824-2.126-6.7792-4.9882H1.476v3.1202C3.5036 21.388 7.649 24.0018 12.24 24.0018z"/><path fill="#FBBC05" d="M5.4608 14.2386c-.2448-.733-.3836-1.516-.3836-2.3268 0-.8108.1388-1.5938.3836-2.3268V6.4648H1.476C.5352 8.3382 0 10.442 0 12.675c0 2.233.5352 4.3368 1.476 6.2102l3.9848-3.1202z"/><path fill="#EA4335" d="M12.24 4.7478c1.7766 0 3.368.6118 4.619 1.805l3.4676-3.4676C18.2258 1.1742 15.4916 0 12.24 0 7.649 0 3.5036 2.6138 1.476 6.4648l3.9848 3.1202c.9552-2.8622 3.6284-4.9882 6.7792-4.9882z"/></svg>
