<svg role="img" viewBox="0 0 24 24" xmlns="http://www.w3.org/2000/svg"><path d="M12.29 14.7c-.07.16-.14.32-.22.48-.67 1.36-1.57 2.59-2.65 3.64-1.11 1.08-2.39 1.94-3.78 2.54-.7.3-1.43.54-2.18.71-.37.09-.75.15-1.13.19-.19.02-.38.03-.57.04H1.7c-.19 0-.38-.01-.57-.03-.38-.03-.76-.09-1.13-.17-.75-.16-1.48-.39-2.18-.68-1.39-.58-2.68-1.43-3.8-2.5-1.09-1.04-1.99-2.26-2.67-3.61-.08-.16-.15-.32-.22-.48-.07-.16-.13-.32-.19-.49-.12-.33-.22-.67-.31-1.01-.17-.69-.29-1.4-.35-2.12-.03-.36-.05-.72-.05-1.08 0-.36.02-.72.05-1.08.06-.72.18-1.43.35-2.12.09-.34.19-.68.31-1.01.06-.17.12-.33.19-.49.07-.16.14-.32.22-.48.68-1.35 1.58-2.57 2.67-3.61 1.12-1.07 2.41-1.92 3.8-2.5.7-.29 1.43-.52 2.18-.68.37-.08.75-.14 1.13-.17.19-.02.38-.03.57-.03h.06c.19.01.38.02.57.04.38.04.76.1 1.13.19.75.17 1.48.41 2.18.71 1.39.6 2.67 1.46 3.78 2.54 1.08 1.05 1.98 2.28 2.65 3.64.08.16.15.32.22.48.07.16.13.32.19.49.12.33.22.67.31 1.01.17.69.29 1.4.35 2.12.03.36.05.72.05 1.08 0 .36-.02.72-.05 1.08-.06.72-.18 1.43-.35 2.12-.09.34-.19.68-.31 1.01-.06.17-.12.33-.19.49z"/></svg>
