<?xml version="1.0" encoding="UTF-8"?>
<svg version="1.1" xmlns="http://www.w3.org/2000/svg" width="512" height="512">
<path d="M0 0 C1.01790619 0.00215515 2.03581238 0.0043103 3.08456421 0.00653076 C17.69363523 0.05620146 32.02575853 0.30709809 46.375 3.3125 C47.34985352 3.51117676 48.32470703 3.70985352 49.32910156 3.91455078 C97.7109774 14.03517194 141.69928269 35.9516877 177.375 70.3125 C178.3640332 71.26068604 178.3640332 71.26068604 179.37304688 72.22802734 C188.86130305 81.37247479 197.6012044 90.66984009 205.375 101.3125 C206.23306152 102.46355017 207.09113451 103.61459177 207.94921875 104.765625 C213.98736829 112.95680614 219.34595521 121.47054105 224.375 130.3125 C224.73948242 130.94430176 225.10396484 131.57610352 225.47949219 132.22705078 C247.08534998 169.97532572 256.85198095 212.74189997 256.6875 255.9375 C256.68534485 256.95540619 256.6831897 257.97331238 256.68096924 259.02206421 C256.63129854 273.63113523 256.38040191 287.96325853 253.375 302.3125 C253.07698486 303.77478027 253.07698486 303.77478027 252.77294922 305.26660156 C242.65232806 353.6484774 220.7358123 397.63678269 186.375 433.3125 C185.74287598 433.97185547 185.11075195 434.63121094 184.45947266 435.31054688 C175.31502521 444.79880305 166.01765991 453.5387044 155.375 461.3125 C154.22394983 462.17056152 153.07290823 463.02863451 151.921875 463.88671875 C143.73224019 469.92427396 135.22961724 475.30707302 126.375 480.3125 C125.66778809 480.7146875 124.96057617 481.116875 124.23193359 481.53125 C101.09654164 494.5566741 75.92537591 503.30551461 49.9375 508.625 C49.21860596 508.77235596 48.49971191 508.91971191 47.7590332 509.0715332 C33.08339502 511.86090125 18.55831162 512.66142619 3.64770508 512.62817383 C0.70811513 512.6250221 -2.2304558 512.64854926 -5.16992188 512.67382812 C-18.54306192 512.71848737 -31.43916711 511.51301542 -44.625 509.3125 C-46.33055054 509.03031616 -46.33055054 509.03031616 -48.07055664 508.74243164 C-91.33802759 500.97044532 -132.38793216 480.98345309 -165.625 452.3125 C-166.37007813 451.67828125 -167.11515625 451.0440625 -167.8828125 450.390625 C-181.38779833 438.57948485 -194.05918743 425.82889772 -204.625 411.3125 C-205.48149066 410.16255169 -206.33826433 409.01281411 -207.1953125 407.86328125 C-213.23534209 399.67315742 -218.61867614 391.16870382 -223.625 382.3125 C-224.0271875 381.60528809 -224.429375 380.89807617 -224.84375 380.16943359 C-237.8691741 357.03404164 -246.61801461 331.86287591 -251.9375 305.875 C-252.08485596 305.15610596 -252.23221191 304.43721191 -252.3840332 303.6965332 C-255.35789088 288.05024391 -255.99800362 272.57681954 -255.9375 256.6875 C-255.93534485 255.66959381 -255.9331897 254.65168762 -255.93096924 253.60293579 C-255.88129854 238.99386477 -255.63040191 224.66174147 -252.625 210.3125 C-252.42632324 209.33764648 -252.22764648 208.36279297 -252.02294922 207.35839844 C-241.90232806 158.9765226 -219.9858123 114.98821731 -185.625 79.3125 C-184.99287598 78.65314453 -184.36075195 77.99378906 -183.70947266 77.31445312 C-174.56502521 67.82619695 -165.26765991 59.0862956 -154.625 51.3125 C-153.47394983 50.45443848 -152.32290823 49.59636549 -151.171875 48.73828125 C-142.98224019 42.70072604 -134.47961724 37.31792698 -125.625 32.3125 C-124.91778809 31.9103125 -124.21057617 31.508125 -123.48193359 31.09375 C-100.34654164 18.0683259 -75.17537591 9.31948539 -49.1875 4 C-48.46860596 3.85264404 -47.74971191 3.70528809 -47.0090332 3.5534668 C-31.36274391 0.57960912 -15.88931954 -0.06050362 0 0 Z " fill="#4169E1" transform="translate(255.625,-0.3125)"/>
<path d="M0 0 C1.57460999 -0.00642769 1.57460999 -0.00642769 3.18103027 -0.01298523 C5.38614179 -0.01869249 7.59127213 -0.01925562 9.79638672 -0.01489258 C13.14713933 -0.01172736 16.49701206 -0.03525621 19.84765625 -0.06054688 C22.00260307 -0.0628199 24.15755223 -0.06352335 26.3125 -0.0625 C27.30133179 -0.07170975 28.29016357 -0.08091949 29.30895996 -0.09040833 C35.98587725 -0.04653724 44.03885729 0.19349264 49.34655762 4.75273132 C53.13338282 9.19734938 53.78260239 11.94977785 53.81396484 17.65893555 C53.81904556 18.31122635 53.82412628 18.96351715 53.82936096 19.63557434 C53.84007041 21.05423828 53.84868834 22.47291918 53.85548019 23.89160728 C53.86727195 26.14110995 53.88672781 28.39042086 53.90859985 30.6398468 C53.97018899 37.03644367 54.0241565 43.43302333 54.05761719 49.82983398 C54.07863287 53.74211776 54.11399641 57.65405572 54.15837479 61.56614113 C54.17248679 63.05354537 54.18124634 64.54101084 54.18442917 66.02847862 C54.18937101 68.11790153 54.21261232 70.20641757 54.23974609 72.2956543 C54.24783295 73.4820903 54.2559198 74.66852631 54.26425171 75.89091492 C54.72722961 79.91820987 55.90572965 82.66406335 57.65625 86.30078125 C61.96558185 86.65658404 61.96558185 86.65658404 65.7890625 84.89453125 C84.50583103 65.22357452 96.61911848 41.76085665 107.07421875 16.93359375 C107.47253906 16.04414063 107.87085938 15.1546875 108.28125 14.23828125 C108.58289063 13.52542969 108.88453125 12.81257812 109.1953125 12.078125 C112.13226522 8.50509428 116.06623831 7.46153448 120.51159668 7.01210022 C123.99925182 6.8874634 127.47495035 6.85885362 130.96484375 6.8671875 C132.88587669 6.85932472 132.88587669 6.85932472 134.84571838 6.8513031 C137.54804386 6.84240348 140.25007332 6.84475861 142.95239258 6.85473633 C146.39663192 6.86622119 149.83984519 6.84600775 153.28394985 6.81681919 C156.5943001 6.79394458 159.9044166 6.80092871 163.21484375 6.8046875 C164.44214706 6.79345352 165.66945038 6.78221954 166.9339447 6.77064514 C173.92773622 6.82730052 178.7898176 7.34474198 184.65625 11.30078125 C187.13910567 18.73198564 183.7868689 25.51865057 180.65625 32.30078125 C174.97998024 43.65640402 167.12257653 53.71874262 159.51757812 63.82177734 C156.39271307 67.98361887 153.30550541 72.17313617 150.21875 76.36328125 C149.63230713 77.15903564 149.04586426 77.95479004 148.44165039 78.7746582 C138.31555822 90.78473391 138.31555822 90.78473391 134.16186523 105.18652344 C136.05793938 113.29516643 146.82820161 120.55476303 152.65625 126.30078125 C161.1878312 134.71227987 169.29230826 143.15359816 176.34375 152.86328125 C176.80330078 153.48396484 177.26285156 154.10464844 177.73632812 154.74414062 C186.61655695 166.89269904 186.61655695 166.89269904 185.65625 174.30078125 C183.98000739 177.98851498 182.08371406 180.15861621 178.65625 182.30078125 C175.58820691 183.32346228 173.44127899 183.44544623 170.22607422 183.4777832 C169.11416718 183.49061844 168.00226013 183.50345367 166.85665894 183.51667786 C165.65357086 183.52406479 164.45048279 183.53145172 163.2109375 183.5390625 C161.97135284 183.54713425 160.73176819 183.55520599 159.45462036 183.56352234 C156.82685749 183.57736506 154.19907663 183.58808636 151.57128906 183.59594727 C148.88843929 183.6047855 146.20611114 183.62560725 143.5234375 183.6574707 C139.648279 183.70022547 135.77380286 183.71633011 131.8984375 183.7265625 C130.70749481 183.74407059 129.51655212 183.76157867 128.28952026 183.77961731 C113.40055825 183.74109777 104.73469232 176.52693437 94.59375 166.42578125 C90.32224638 162.12628613 86.22949088 157.74363336 82.3125 153.1171875 C75.44710177 145.39993502 75.44710177 145.39993502 66.21875 142.05078125 C62.81066487 141.97423011 62.81066487 141.97423011 61.0625 143.45703125 C55.6759206 150.51943535 55.06150249 161.32425227 54.24609375 169.890625 C53.57774415 173.75465943 52.94444911 176.09373416 50.65625 179.30078125 C44.27576147 183.75388497 37.49606359 183.8705974 29.96875 183.67578125 C28.37111816 183.64991943 28.37111816 183.64991943 26.74121094 183.62353516 C-5.83232973 182.8843549 -31.8793694 170.43411919 -55.34375 148.30078125 C-56.10816406 147.61242187 -56.87257813 146.9240625 -57.66015625 146.21484375 C-79.66113497 125.55494611 -95.05373516 96.58170154 -109.34375 70.30078125 C-109.76881836 69.52589355 -110.19388672 68.75100586 -110.63183594 67.95263672 C-116.52579892 57.16921234 -121.93833861 46.1759356 -127.07043457 35.01254272 C-127.70598494 33.63221306 -128.34565462 32.2537719 -128.98962402 30.87734985 C-129.8963222 28.93338115 -130.78447924 26.98195045 -131.66796875 25.02734375 C-132.18447998 23.89893066 -132.70099121 22.77051758 -133.2331543 21.60791016 C-134.48799462 17.87125002 -134.83413392 15.21409658 -134.34375 11.30078125 C-132.31857773 8.69823411 -131.12187546 7.45736452 -127.85305786 6.79957581 C-126.45457108 6.79932655 -126.45457108 6.79932655 -125.02783203 6.79907227 C-123.9663797 6.78969131 -122.90492737 6.78031036 -121.81130981 6.77064514 C-120.6695932 6.78187912 -119.52787659 6.7931131 -118.3515625 6.8046875 C-117.17286591 6.80323227 -115.99416931 6.80177704 -114.77975464 6.80027771 C-112.28657562 6.80193762 -109.79338645 6.81350895 -107.30029297 6.83422852 C-103.49011496 6.86311925 -99.6813336 6.8548507 -95.87109375 6.84179688 C-93.44790992 6.84803626 -91.02473048 6.85642875 -88.6015625 6.8671875 C-87.46389435 6.86425186 -86.3262262 6.86131622 -85.15408325 6.85829163 C-78.53139088 6.9369644 -73.7604492 7.32879528 -68.57495117 11.83935547 C-65.00199224 16.10154357 -62.72480195 20.28322735 -60.65625 25.42578125 C-46.17562196 60.86243785 -46.17562196 60.86243785 -20.34375 87.30078125 C-17.63421449 87.55274254 -17.63421449 87.55274254 -15.34375 87.30078125 C-9.09981664 77.36725091 -10.02714896 64.08965796 -10.09375 52.80078125 C-10.08601563 51.48980469 -10.07828125 50.17882812 -10.0703125 48.828125 C-9.59200546 34.21126431 -9.59200546 34.21126431 -14.28125 20.80078125 C-18.55778829 17.30972959 -23.23638473 15.32226032 -28.34375 13.30078125 C-28.15719148 9.28977303 -27.60426497 7.59469557 -24.90625 4.55078125 C-18.02700786 -0.55926412 -8.17960338 -0.00753915 0 0 Z " fill="#FEFEFE" transform="translate(230.34375,172.69921875)"/>
</svg>
